HIERARCHY
ROOT joint_0
{
	OFFSET 0.000000 0.000000 0.000000
	CHANNELS 6 Xposition Yposition Zposition Zrotation Yrotation Xrotation 
	JOINT joint_1
	{
		OFFSET 17.107422 0.519409 105.452026
		CHANNELS 3 Zrotation Yrotation Xrotation
		JOINT joint_2
		{
			OFFSET 6.110352 -1.434082 97.381958
			CHANNELS 3 Zrotation Yrotation Xrotation
			JOINT joint_3
			{
				OFFSET 6.305908 -1.739990 97.255005
				CHANNELS 3 Zrotation Yrotation Xrotation
				JOINT joint_4
				{
					OFFSET 22.074707 -0.492493 131.077026
					CHANNELS 3 Zrotation Yrotation Xrotation
					JOINT joint_5
					{
						OFFSET 34.162842 2.248718 78.700928
						CHANNELS 3 Zrotation Yrotation Xrotation
						End Site
						{
							OFFSET 0.000000 0.000000 0.000000
						}
					}
				}
				JOINT joint_6
				{
					OFFSET 17.059082 -28.836914 72.664062
					CHANNELS 3 Zrotation Yrotation Xrotation
					JOINT joint_7
					{
						OFFSET 22.639893 -134.803833 -24.691040
						CHANNELS 3 Zrotation Yrotation Xrotation
						JOINT joint_8
						{
							OFFSET 7.301758 -32.590759 -269.966064
							CHANNELS 3 Zrotation Yrotation Xrotation
							JOINT joint_9
							{
								OFFSET 35.581055 -8.517151 -242.326965
								CHANNELS 3 Zrotation Yrotation Xrotation
								End Site
								{
									OFFSET 0.000000 0.000000 0.000000
								}
							}
						}
					}
				}
				JOINT joint_10
				{
					OFFSET 7.819092 28.232056 74.432983
					CHANNELS 3 Zrotation Yrotation Xrotation
					JOINT joint_11
					{
						OFFSET -23.457031 135.063843 -22.406982
						CHANNELS 3 Zrotation Yrotation Xrotation
						JOINT joint_12
						{
							OFFSET 17.896973 48.138672 -267.131958
							CHANNELS 3 Zrotation Yrotation Xrotation
							JOINT joint_13
							{
								OFFSET 46.526367 17.567627 -239.975037
								CHANNELS 3 Zrotation Yrotation Xrotation
								End Site
								{
									OFFSET 0.000000 0.000000 0.000000
								}
							}
						}
					}
				}
			}
		}
	}
	JOINT joint_14
	{
		OFFSET 10.553467 -100.140320 -126.306030
		CHANNELS 3 Zrotation Yrotation Xrotation
		JOINT joint_15
		{
			OFFSET -52.094238 -9.565002 -436.052002
			CHANNELS 3 Zrotation Yrotation Xrotation
			JOINT joint_16
			{
				OFFSET -55.682617 -11.310120 -462.482971
				CHANNELS 3 Zrotation Yrotation Xrotation
				JOINT joint_17
				{
					OFFSET 179.119385 -5.942566 -84.087004
					CHANNELS 3 Zrotation Yrotation Xrotation
					End Site
					{
						OFFSET 0.000000 0.000000 0.000000
					}
				}
			}
		}
	}
	JOINT joint_18
	{
		OFFSET -22.235352 101.620483 -123.583984
		CHANNELS 3 Zrotation Yrotation Xrotation
		JOINT joint_19
		{
			OFFSET -38.118408 12.306396 -437.429016
			CHANNELS 3 Zrotation Yrotation Xrotation
			JOINT joint_20
			{
				OFFSET -51.789307 8.010498 -463.006004
				CHANNELS 3 Zrotation Yrotation Xrotation
				JOINT joint_21
				{
					OFFSET 170.088135 59.632324 -83.078003
					CHANNELS 3 Zrotation Yrotation Xrotation
					End Site
					{
						OFFSET 0.000000 0.000000 0.000000
					}
				}
			}
		}
	}
}
MOTION
Frames: 16
Frame Time: 0.016667
-3245.129639 864.623901 1129.116943 -3.337234 -2.317248 -0.207931 -0.107403 -0.810667 0.885128 -0.027916 0.082076 -0.193996 -0.050853 -0.063524 0.123472 0.088603 -7.473058 0.412308 0.000000 0.000000 0.000000 -2.301444 0.414044 1.546624 0.021132 -0.655658 -2.260480 0.312973 -2.288675 1.455457 0.000000 0.000000 0.000000 0.329976 1.467224 -1.143393 0.842460 1.359083 -2.247016 0.793066 -1.447980 4.597209 0.000000 0.000000 0.000000 -0.513283 -1.231293 -2.082281 -0.762309 3.021929 -0.829771 -0.805834 1.670265 -0.320721 0.000000 0.000000 0.000000 0.559326 0.965797 1.496161 0.702521 -0.386945 -0.624032 0.720235 2.131914 -0.396404 0.000000 0.000000 0.000000 
-3242.875977 864.457153 1129.286987 -3.265174 -1.849419 -0.234356 -0.155847 -0.852315 0.901139 -0.074387 0.098125 -0.186030 -0.096101 -0.068931 0.106655 0.104391 -8.179466 0.451326 0.000000 0.000000 0.000000 -2.192446 0.596340 1.532152 0.028767 -0.465640 -2.342936 0.339419 -2.186027 1.660556 0.000000 0.000000 0.000000 0.027573 1.801643 -1.020836 0.933452 1.720910 -2.347886 0.713691 -1.984374 4.383867 0.000000 0.000000 0.000000 -0.552178 -1.566128 -2.073868 -0.813485 2.912960 -0.765789 -0.850795 1.761213 -0.338776 0.000000 0.000000 0.000000 0.546278 0.564568 1.560577 0.712819 -0.412242 -0.698370 0.725796 2.194662 -0.415616 0.000000 0.000000 0.000000 
-3240.187744 864.358459 1129.446045 -3.193043 -1.383845 -0.262792 -0.186127 -0.857270 0.912494 -0.103126 0.108773 -0.185405 -0.124492 -0.073660 0.097719 0.109784 -8.889156 0.516790 0.000000 0.000000 0.000000 -2.065392 1.002339 1.277377 -0.047843 0.039856 -2.233286 0.487300 -3.433372 2.254898 0.000000 0.000000 0.000000 -0.284444 2.137213 -0.876016 1.018886 2.066922 -2.527707 0.660863 -2.425576 4.268847 0.000000 0.000000 0.000000 -0.573964 -1.868904 -2.083285 -0.851008 2.802505 -0.684562 -0.880180 1.829825 -0.350305 0.000000 0.000000 0.000000 0.548877 0.184476 1.621425 0.738749 -0.423311 -0.779446 0.744161 2.237202 -0.421497 0.000000 0.000000 0.000000 
-3237.217773 864.368469 1129.583984 -3.122218 -1.005928 -0.283173 -0.158275 -0.751522 0.890027 -0.078199 0.104413 -0.178070 -0.098856 -0.066170 0.097454 0.100859 -9.515523 0.593089 0.000000 0.000000 0.000000 -1.979895 1.857214 0.778262 -0.251761 1.076636 -1.960450 0.874356 -7.159302 3.532100 0.000000 0.000000 0.000000 -0.524043 2.373853 -0.737674 1.071918 2.280833 -2.801705 0.677191 -2.567822 4.398304 0.000000 0.000000 0.000000 -0.560671 -2.059428 -2.130182 -0.857486 2.709646 -0.588311 -0.876694 1.848355 -0.348130 0.000000 0.000000 0.000000 0.583732 -0.101825 1.664623 0.794903 -0.390629 -0.872070 0.787396 2.244534 -0.402905 0.000000 0.000000 0.000000 
-3233.900879 864.444031 1129.708984 -3.051346 -0.668635 -0.299112 -0.087733 -0.577398 0.837897 -0.015088 0.094611 -0.149027 -0.032979 -0.053490 0.090414 0.089798 -10.121387 0.646653 0.000000 0.000000 0.000000 -1.928013 3.104928 0.321573 -0.509574 2.481757 -1.767136 1.445366 -12.711491 5.192078 0.000000 0.000000 0.000000 -0.741949 2.554133 -0.591621 1.104636 2.414441 -3.161300 0.747922 -2.491482 4.726079 0.000000 0.000000 0.000000 -0.523345 -2.186353 -2.205971 -0.844342 2.629258 -0.473537 -0.851402 1.835266 -0.336805 0.000000 0.000000 0.000000 0.645896 -0.337849 1.697628 0.878050 -0.327114 -0.977664 0.853248 2.230856 -0.365908 0.000000 0.000000 0.000000 
-3230.062012 864.741394 1129.802979 -2.983703 -0.349719 -0.327115 -0.042824 -0.346211 0.861691 0.027683 0.061359 -0.153917 0.009878 -0.025780 0.101317 0.067186 -10.664001 0.695837 0.000000 0.000000 0.000000 -1.876301 4.484527 -0.330180 -0.783950 4.042845 -1.524886 2.133247 -19.883385 6.990285 0.000000 0.000000 0.000000 -0.885268 2.778975 -0.475478 1.128042 2.592043 -3.471370 0.777837 -2.473938 4.871351 0.000000 0.000000 0.000000 -0.456512 -2.236097 -2.294187 -0.800604 2.513982 -0.357369 -0.796335 1.777050 -0.313051 0.000000 0.000000 0.000000 0.698730 -0.517168 1.719731 0.947145 -0.262017 -1.057814 0.905473 2.161116 -0.315893 0.000000 0.000000 0.000000 
-3225.696777 865.407043 1129.854980 -2.911086 -0.050831 -0.382651 -0.075733 -0.052612 1.075045 0.007679 -0.012724 -0.242854 -0.017111 0.029247 0.153532 0.034764 -11.108053 0.724942 0.000000 0.000000 0.000000 -1.744577 5.937547 -1.220053 -1.080471 5.668939 -1.351093 2.904396 -29.155282 8.930707 0.000000 0.000000 0.000000 -0.878527 3.099439 -0.467488 1.143046 2.889391 -3.597169 0.698439 -2.679292 4.550835 0.000000 0.000000 0.000000 -0.358415 -2.171359 -2.380802 -0.719114 2.306275 -0.252271 -0.707193 1.670933 -0.274948 0.000000 0.000000 0.000000 0.710409 -0.620785 1.731568 0.966300 -0.220606 -1.079798 0.912648 2.011615 -0.259894 0.000000 0.000000 0.000000 
-3220.873779 866.378601 1129.870972 -2.832860 0.220771 -0.458713 -0.161425 0.306041 1.432990 -0.055762 -0.116927 -0.371447 -0.090966 0.106188 0.225901 0.003603 -11.477177 0.688448 0.000000 0.000000 0.000000 -1.599500 7.552800 -1.918648 -1.401327 7.236836 -1.604993 3.625389 -40.336426 10.913348 0.000000 0.000000 0.000000 -0.737208 3.474176 -0.577296 1.143988 3.263751 -3.563507 0.543735 -3.005886 3.902667 0.000000 0.000000 0.000000 -0.231721 -1.998000 -2.471913 -0.604572 2.022522 -0.153014 -0.588033 1.525384 -0.224107 0.000000 0.000000 0.000000 0.694993 -0.652236 1.733058 0.951214 -0.192452 -1.057842 0.888813 1.798007 -0.196567 0.000000 0.000000 0.000000 
-3215.088379 867.489075 1129.850952 -2.797825 0.533776 -0.530547 -0.256405 0.668084 1.744095 -0.133661 -0.217887 -0.474586 -0.177079 0.180498 0.278056 -0.055280 -11.801051 0.674585 0.000000 0.000000 0.000000 -1.604984 9.082369 -2.561068 -1.675560 8.479336 -1.982736 4.141604 -51.650011 12.515693 0.000000 0.000000 0.000000 -0.660277 3.952096 -0.636351 1.147304 3.744552 -3.513756 0.335104 -3.514825 3.053435 0.000000 0.000000 0.000000 -0.066864 -1.837504 -2.588187 -0.455938 1.778349 -0.056645 -0.434872 1.319724 -0.159347 0.000000 0.000000 0.000000 0.688155 -0.671967 1.711983 0.941808 -0.152747 -1.024048 0.868938 1.537838 -0.115007 0.000000 0.000000 0.000000 
-3207.994385 868.612671 1129.759033 -2.843630 0.930194 -0.586028 -0.338370 0.986825 1.859532 -0.214640 -0.287733 -0.502681 -0.259687 0.225518 0.278816 -0.168946 -12.076015 0.761304 0.000000 0.000000 0.000000 -1.847800 10.459695 -3.449291 -1.870605 9.388724 -2.117400 4.527344 -62.715491 13.475957 0.000000 0.000000 0.000000 -0.772575 4.607670 -0.509477 1.163042 4.387173 -3.530549 0.061499 -4.329911 1.987919 0.000000 0.000000 0.000000 0.151837 -1.751547 -2.743049 -0.262207 1.627907 0.039989 -0.234893 1.026484 -0.075615 0.000000 0.000000 0.000000 0.709243 -0.704305 1.661158 0.958808 -0.096502 -0.990961 0.870477 1.216368 -0.001548 0.000000 0.000000 0.000000 
-3199.786133 869.813416 1129.597046 -2.952513 1.383769 -0.635524 -0.423383 1.284455 1.851108 -0.309311 -0.337551 -0.482968 -0.352256 0.248511 0.244778 -0.326701 -12.285193 0.912836 0.000000 0.000000 0.000000 -2.297628 11.720662 -4.493530 -2.100612 9.929045 -2.168908 4.880362 -74.110419 13.901306 0.000000 0.000000 0.000000 -0.991385 5.420108 -0.310017 1.185355 5.185042 -3.526700 -0.279020 -5.442745 0.677628 0.000000 0.000000 0.000000 0.419684 -1.693894 -2.929501 -0.024987 1.525398 0.136222 0.009101 0.662522 0.026284 0.000000 0.000000 0.000000 0.745109 -0.726190 1.584037 0.987221 -0.034319 -0.945191 0.880975 0.836386 0.136719 0.000000 0.000000 0.000000 
-3190.496582 871.161377 1129.515015 -3.095205 1.911152 -0.665713 -0.503985 1.584766 1.811102 -0.402780 -0.388171 -0.462971 -0.444889 0.287213 0.210310 -0.510519 -12.520210 1.115279 0.000000 0.000000 0.000000 -2.799239 12.662377 -5.305499 -2.581675 9.930475 -2.648090 5.150008 -84.645046 14.253755 0.000000 0.000000 0.000000 -1.292788 6.221981 -0.209757 1.217383 5.983854 -3.536434 -0.568190 -6.533443 -0.417320 0.000000 0.000000 0.000000 0.692869 -1.746613 -3.154582 0.206617 1.568124 0.238707 0.251789 0.295301 0.127347 0.000000 0.000000 0.000000 0.809699 -0.808809 1.477601 1.047671 0.082849 -0.925880 0.922266 0.532448 0.263232 0.000000 0.000000 0.000000 
-3180.054443 872.822327 1129.562012 -3.298370 2.553118 -0.660002 -0.590501 1.902268 1.808783 -0.499647 -0.448733 -0.488881 -0.547785 0.358492 0.205324 -0.714189 -12.873002 1.378703 0.000000 0.000000 0.000000 -3.097334 13.201882 -5.639451 -3.517274 9.423441 -4.005946 -174.801208 -85.820407 -165.118240 0.000000 0.000000 0.000000 -1.712554 6.951616 -0.334320 1.281022 6.740624 -3.575450 -0.748684 -7.505610 -1.044766 0.000000 0.000000 0.000000 0.956743 -1.991280 -3.445521 0.410825 1.807713 0.359569 0.474241 -0.034046 0.219995 0.000000 0.000000 0.000000 0.941129 -1.010739 1.311565 1.179762 0.261119 -0.955674 1.035008 0.408623 0.361266 0.000000 0.000000 0.000000 
-3168.452148 874.772705 1129.678955 -3.572608 3.302879 -0.625475 -0.686078 2.231888 1.803448 -0.607170 -0.507422 -0.544253 -0.668974 0.433469 0.222554 -0.945269 -13.296102 1.718149 0.000000 0.000000 0.000000 -3.231416 13.277508 -5.640336 -4.986422 8.477125 -6.022591 -174.989693 -76.603946 -164.493383 0.000000 0.000000 0.000000 -2.265250 7.688400 -0.627516 1.376532 7.502657 -3.647396 -0.859323 -8.476873 -1.369884 0.000000 0.000000 0.000000 1.229350 -2.395744 -3.802234 0.607883 2.204319 0.498205 0.695293 -0.336474 0.312513 0.000000 0.000000 0.000000 1.134364 -1.303640 1.084492 1.375743 0.478496 -1.017408 1.212132 0.427977 0.440150 0.000000 0.000000 0.000000 
-3156.064941 876.463196 1130.108032 -3.707947 4.019207 -0.589568 -0.700350 2.599843 1.745145 -0.641175 -0.571003 -0.578244 -0.719933 0.506396 0.245751 -1.185919 -13.634268 2.080239 0.000000 0.000000 0.000000 -3.744384 12.619959 -5.485926 -6.581624 7.254562 -7.801063 -175.205930 -69.238940 -164.065139 0.000000 0.000000 0.000000 -2.843393 8.271361 -0.800067 1.385010 7.948515 -3.969983 -0.850888 -8.820768 -1.256728 0.000000 0.000000 0.000000 1.452828 -2.828816 -4.133061 0.755402 2.821813 0.636371 0.872782 -0.560448 0.386880 0.000000 0.000000 0.000000 1.256676 -1.623864 0.918993 1.515825 0.849869 -1.123207 1.334834 0.550309 0.455981 0.000000 0.000000 0.000000 
-3142.928223 877.599060 1130.963013 -3.563044 4.643690 -0.566072 -0.519368 3.037720 1.550650 -0.496489 -0.656108 -0.523221 -0.587919 0.603544 0.243844 -1.458732 -13.848839 2.455195 0.000000 0.000000 0.000000 -5.306836 11.010527 -5.238923 -7.679678 6.034294 -8.762577 -175.183577 -64.797165 -163.773216 0.000000 0.000000 0.000000 -3.315161 8.615635 -0.478849 1.175200 7.757296 -4.915462 -0.669215 -7.925149 -0.529862 0.000000 0.000000 0.000000 1.571732 -3.182253 -4.375612 0.810623 3.613111 0.762619 0.961661 -0.625129 0.424889 0.000000 0.000000 0.000000 1.213936 -1.965892 0.897218 1.515966 1.470723 -1.282869 1.319144 0.744275 0.379014 0.000000 0.000000 0.000000 
